<svg width="192" height="32" viewBox="0 0 192 32" fill="none" xmlns="http://www.w3.org/2000/svg">
<path d="M0 24.381C0 20.1731 3.41116 16.7619 7.61905 16.7619H183.619C187.827 16.7619 191.238 20.1731 191.238 24.381C191.238 28.5888 187.827 32 183.619 32H7.61905C3.41116 32 0 28.5888 0 24.381Z" fill="#FCA311"/>
<path d="M17.7179 0.468864C19.2642 0.468864 20.6071 0.826094 21.7465 1.54055C22.8859 2.23269 23.7649 3.2374 24.3834 4.55468C25.0019 5.84964 25.3112 7.37903 25.3112 9.14286C25.3112 10.9067 25.0019 12.4361 24.3834 13.731C23.7649 15.026 22.8859 16.0307 21.7465 16.7452C20.6071 17.4373 19.2642 17.7834 17.7179 17.7834H14.7391V23.9121H9.90476V0.468864H17.7179ZM17.4249 12.5589C18.4178 12.5589 19.1665 12.2686 19.6711 11.6881C20.1757 11.0853 20.428 10.2369 20.428 9.14286C20.428 8.04884 20.1757 7.20042 19.6711 6.59759C19.1665 5.99477 18.4178 5.69335 17.4249 5.69335H14.7391V12.5589H17.4249Z" fill="#2E3C40"/>
<path d="M27.6683 0.468864H32.5026V23.9121H27.6683V0.468864Z" fill="#2E3C40"/>
<path d="M47.3931 11.6881H51.6659V21.4003C50.6892 22.3604 49.5661 23.0972 48.2965 23.6107C47.0269 24.1242 45.7572 24.381 44.4876 24.381C42.6971 24.381 41.0857 23.8674 39.6533 22.8404C38.2209 21.791 37.0977 20.3398 36.2839 18.4867C35.47 16.6335 35.0631 14.5348 35.0631 12.1905C35.0631 9.84615 35.47 7.74743 36.2839 5.8943C37.0977 4.04116 38.229 2.60108 39.6777 1.57404C41.1263 0.524682 42.7622 0 44.5853 0C46.1804 0 47.6128 0.368393 48.8825 1.10518C50.1521 1.84197 51.2101 2.9025 52.0565 4.28676L48.9801 8.10466C47.8244 6.36316 46.4409 5.49241 44.8294 5.49241C43.3645 5.49241 42.1844 6.1064 41.2891 7.33438C40.3939 8.54003 39.9462 10.1587 39.9462 12.1905C39.9462 13.4854 40.1497 14.6464 40.5566 15.6735C40.9636 16.6782 41.5333 17.4708 42.2658 18.0513C42.9982 18.6095 43.8365 18.8885 44.7806 18.8885C45.7084 18.8885 46.5792 18.6318 47.3931 18.1183V11.6881Z" fill="#2E3C40"/>
<path d="M54.1937 11.9226H61.3231V16.8121H54.1937V11.9226Z" fill="#2E3C40"/>
<path d="M72.7656 24.381C70.9751 24.381 69.3637 23.8674 67.9313 22.8404C66.5151 21.791 65.4001 20.3398 64.5863 18.4867C63.7724 16.6335 63.3655 14.5348 63.3655 12.1905C63.3655 9.84615 63.7724 7.74743 64.5863 5.8943C65.4001 4.04116 66.5151 2.60108 67.9313 1.57404C69.3637 0.524682 70.9751 0 72.7656 0C74.3282 0 75.7362 0.379557 76.9896 1.13867C78.2429 1.89779 79.2847 2.9918 80.1148 4.42072L77.0384 8.23862C75.9315 6.40781 74.5887 5.49241 73.0098 5.49241C72.082 5.49241 71.2518 5.7715 70.5193 6.32967C69.8031 6.88784 69.2416 7.68045 68.8346 8.70748C68.444 9.71219 68.2487 10.8732 68.2487 12.1905C68.2487 13.5078 68.444 14.6799 68.8346 15.707C69.2416 16.7117 69.8031 17.4931 70.5193 18.0513C71.2518 18.6095 72.082 18.8885 73.0098 18.8885C74.5887 18.8885 75.9315 17.9731 77.0384 16.1423L80.1148 19.9602C79.2847 21.3891 78.2429 22.4832 76.9896 23.2423C75.7362 24.0014 74.3282 24.381 72.7656 24.381Z" fill="#2E3C40"/>
<path d="M93.4352 19.3574H86.2081L84.8652 23.9121H79.9332L87.4777 0.468864H92.2388L99.8077 23.9121H94.7781L93.4352 19.3574ZM92.0191 14.4678L89.8216 6.96599L87.6242 14.4678H92.0191Z" fill="#2E3C40"/>
<path d="M108.65 17.6829H106.013V23.9121H101.178V0.468864H108.991C110.538 0.468864 111.881 0.826094 113.02 1.54055C114.159 2.23269 115.038 3.2374 115.657 4.55468C116.275 5.84964 116.585 7.37903 116.585 9.14286C116.585 10.8397 116.292 12.3244 115.706 13.5971C115.136 14.8474 114.314 15.8298 113.24 16.5442L116.927 23.9121H111.75L108.65 17.6829ZM111.702 9.14286C111.702 8.04884 111.449 7.20042 110.945 6.59759C110.44 5.99477 109.691 5.69335 108.698 5.69335H106.013V12.5589H108.698C109.691 12.5589 110.44 12.2686 110.945 11.6881C111.449 11.0853 111.702 10.2369 111.702 9.14286Z" fill="#2E3C40"/>
<path d="M132.974 18.7881V23.9121H119.252V0.468864H132.656V5.59288H124.037V9.54474H131.631V14.5013H124.037V18.7881H132.974Z" fill="#2E3C40"/>
<path d="M142.762 0.468864H147.596V23.9121H142.762V0.468864Z" fill="#2E3C40"/>
<path d="M159.654 24.381C157.847 24.381 156.22 23.8563 154.771 22.8069C153.339 21.7575 152.207 20.3063 151.377 18.4532C150.563 16.6 150.156 14.5125 150.156 12.1905C150.156 9.86848 150.563 7.78092 151.377 5.92779C152.207 4.07466 153.339 2.62341 154.771 1.57404C156.22 0.524682 157.847 0 159.654 0C161.461 0 163.081 0.524682 164.513 1.57404C165.962 2.62341 167.093 4.07466 167.907 5.92779C168.737 7.78092 169.152 9.86848 169.152 12.1905C169.152 14.5125 168.737 16.6 167.907 18.4532C167.093 20.3063 165.962 21.7575 164.513 22.8069C163.081 23.8563 161.461 24.381 159.654 24.381ZM159.654 18.8885C160.517 18.8885 161.298 18.6095 161.998 18.0513C162.698 17.4931 163.251 16.7117 163.658 15.707C164.065 14.6799 164.269 13.5078 164.269 12.1905C164.269 10.8732 164.065 9.71219 163.658 8.70748C163.251 7.68045 162.698 6.88784 161.998 6.32967C161.298 5.7715 160.517 5.49241 159.654 5.49241C158.792 5.49241 158.01 5.7715 157.31 6.32967C156.61 6.88784 156.057 7.68045 155.65 8.70748C155.243 9.71219 155.04 10.8732 155.04 12.1905C155.04 13.5078 155.243 14.6799 155.65 15.707C156.057 16.7117 156.61 17.4931 157.31 18.0513C158.01 18.6095 158.792 18.8885 159.654 18.8885Z" fill="#2E3C40"/>
<path d="M175.084 5.72684H169.834V0.468864H185.143V5.72684H179.918V23.9121H175.084V5.72684Z" fill="#2E3C40"/>
</svg>
